<svg id="visual" viewBox="0 0 900 600" width="900" height="600" xmlns="http://www.w3.org/2000/svg" xmlns:xlink="http://www.w3.org/1999/xlink" version="1.1"><path d="M0 560L30 560.8C60 561.7 120 563.3 180 560.7C240 558 300 551 360 542.8C420 534.7 480 525.3 540 530.2C600 535 660 554 720 535.7C780 517.3 840 461.7 870 433.8L900 406L900 601L870 601C840 601 780 601 720 601C660 601 600 601 540 601C480 601 420 601 360 601C300 601 240 601 180 601C120 601 60 601 30 601L0 601Z" fill="#9a402f" stroke-linecap="round" stroke-linejoin="miter"></path></svg>