<?xml version="1.0" standalone="no"?>
<svg xmlns:xlink="http://www.w3.org/1999/xlink" id="wave" style="transform:rotate(0deg); transition: 0.3s" viewBox="0 0 1440 250" version="1.1" xmlns="http://www.w3.org/2000/svg"><defs><linearGradient id="sw-gradient-0" x1="0" x2="0" y1="1" y2="0"><stop stop-color="rgba(154, 64, 47, 1)" offset="0%"/><stop stop-color="rgba(204, 124, 36, 1)" offset="100%"/></linearGradient></defs><path style="transform:translate(0, 0px); opacity:1" fill="url(#sw-gradient-0)" d="M0,200L40,200C80,200,160,200,240,179.2C320,158,400,117,480,112.5C560,108,640,142,720,166.7C800,192,880,208,960,204.2C1040,200,1120,175,1200,158.3C1280,142,1360,133,1440,125C1520,117,1600,108,1680,87.5C1760,67,1840,33,1920,41.7C2000,50,2080,100,2160,125C2240,150,2320,150,2400,145.8C2480,142,2560,133,2640,112.5C2720,92,2800,58,2880,62.5C2960,67,3040,108,3120,129.2C3200,150,3280,150,3360,158.3C3440,167,3520,183,3600,187.5C3680,192,3760,183,3840,166.7C3920,150,4000,125,4080,108.3C4160,92,4240,83,4320,66.7C4400,50,4480,25,4560,29.2C4640,33,4720,67,4800,75C4880,83,4960,67,5040,87.5C5120,108,5200,167,5280,175C5360,183,5440,142,5520,141.7C5600,142,5680,183,5720,204.2L5760,225L5760,250L5720,250C5680,250,5600,250,5520,250C5440,250,5360,250,5280,250C5200,250,5120,250,5040,250C4960,250,4880,250,4800,250C4720,250,4640,250,4560,250C4480,250,4400,250,4320,250C4240,250,4160,250,4080,250C4000,250,3920,250,3840,250C3760,250,3680,250,3600,250C3520,250,3440,250,3360,250C3280,250,3200,250,3120,250C3040,250,2960,250,2880,250C2800,250,2720,250,2640,250C2560,250,2480,250,2400,250C2320,250,2240,250,2160,250C2080,250,2000,250,1920,250C1840,250,1760,250,1680,250C1600,250,1520,250,1440,250C1360,250,1280,250,1200,250C1120,250,1040,250,960,250C880,250,800,250,720,250C640,250,560,250,480,250C400,250,320,250,240,250C160,250,80,250,40,250L0,250Z"/></svg>