<?xml version="1.0" standalone="no"?>
<svg xmlns:xlink="http://www.w3.org/1999/xlink" id="wave" style="transform:rotate(0deg); transition: 0.3s" viewBox="0 0 1440 170" version="1.1" xmlns="http://www.w3.org/2000/svg"><defs><linearGradient id="sw-gradient-0" x1="0" x2="0" y1="1" y2="0"><stop stop-color="rgba(154, 64, 47, 1)" offset="0%"/><stop stop-color="rgba(204, 124, 36, 1)" offset="100%"/></linearGradient></defs><path style="transform:translate(0, 0px); opacity:1" fill="url(#sw-gradient-0)" d="M0,51L80,56.7C160,62,320,74,480,90.7C640,108,800,130,960,119C1120,108,1280,62,1440,36.8C1600,11,1760,6,1920,8.5C2080,11,2240,23,2400,25.5C2560,28,2720,23,2880,31.2C3040,40,3200,62,3360,62.3C3520,62,3680,40,3840,42.5C4000,45,4160,74,4320,79.3C4480,85,4640,68,4800,70.8C4960,74,5120,96,5280,90.7C5440,85,5600,51,5760,31.2C5920,11,6080,6,6240,11.3C6400,17,6560,34,6720,51C6880,68,7040,85,7200,102C7360,119,7520,136,7680,121.8C7840,108,8000,62,8160,62.3C8320,62,8480,108,8640,107.7C8800,108,8960,62,9120,51C9280,40,9440,62,9600,73.7C9760,85,9920,85,10080,90.7C10240,96,10400,108,10560,107.7C10720,108,10880,96,11040,76.5C11200,57,11360,28,11440,14.2L11520,0L11520,170L11440,170C11360,170,11200,170,11040,170C10880,170,10720,170,10560,170C10400,170,10240,170,10080,170C9920,170,9760,170,9600,170C9440,170,9280,170,9120,170C8960,170,8800,170,8640,170C8480,170,8320,170,8160,170C8000,170,7840,170,7680,170C7520,170,7360,170,7200,170C7040,170,6880,170,6720,170C6560,170,6400,170,6240,170C6080,170,5920,170,5760,170C5600,170,5440,170,5280,170C5120,170,4960,170,4800,170C4640,170,4480,170,4320,170C4160,170,4000,170,3840,170C3680,170,3520,170,3360,170C3200,170,3040,170,2880,170C2720,170,2560,170,2400,170C2240,170,2080,170,1920,170C1760,170,1600,170,1440,170C1280,170,1120,170,960,170C800,170,640,170,480,170C320,170,160,170,80,170L0,170Z"/></svg>